# xmcd
#
# Track frame offsets:
#	150
#	43650
#	61447
#	75693
#	95799
#	127927
#	160655
#	182828
#	199481
#	222433
#	247905
#
# Disc length: 3578 seconds
#
# Revision: 2
# Processed by: cddbd v1.4PL0 Copyright (c) Steve Scherf et al.
# Submitted via: EasyCDDAExtractor 4.6.0.1
#
DISCID=9b0df80b
DTITLE=Cantos de Puebla - Horizontes
DYEAR=1999
DGENRE=folklore
TTITLE0=Paway Urpy - El vuelo de la Paloma
TTITLE1=Taki Puriq - Canción de un caminante
TTITLE2=Kallpachay - Fortalecer
TTITLE3=Horizontes
TTITLE4=El Condor Pasa
TTITLE5=Llaqui Pacuy  - Suspirar
TTITLE6=Pensando en ti
TTITLE7=Intinan - Camino del Sol
TTITLE8=Haces falta
TTITLE9=Illanpu - Resplndor en los Andes
TTITLE10=Mama Vieja
EXTD=
EXTT0=
EXTT1=
EXTT2=
EXTT3=
EXTT4=
EXTT5=
EXTT6=
EXTT7=
EXTT8=
EXTT9=
EXTT10=
PLAYORDER=
